<svg xmlns="http://www.w3.org/2000/svg" xmlns:xlink="http://www.w3.org/1999/xlink" width="24" height="24" preserveAspectRatio="xMidYMid meet" viewBox="0 0 24 24" style="-ms-transform: rotate(360deg); -webkit-transform: rotate(360deg); transform: rotate(360deg);"><path d="M21.822 7.431A1 1 0 0 0 21 7H7.333L6.179 4.23A1.994 1.994 0 0 0 4.333 3H2v2h2.333l4.744 11.385A1 1 0 0 0 10 17h8c.417 0 .79-.259.937-.648l3-8a1 1 0 0 0-.115-.921zM17.307 15h-6.64l-2.5-6h11.39l-2.25 6z" fill="#626262"/><circle cx="10.5" cy="19.5" r="1.5" fill="#626262"/><circle cx="17.5" cy="19.5" r="1.5" fill="#626262"/><rect x="0" y="0" width="24" height="24" fill="rgba(0, 0, 0, 0)" /></svg>